<?xml version="1.0" standalone="no"?>
<!DOCTYPE svg PUBLIC "-//W3C//DTD SVG 20010904//EN"
 "http://www.w3.org/TR/2001/REC-SVG-20010904/DTD/svg10.dtd">
<svg version="1.0" xmlns="http://www.w3.org/2000/svg"
 width="1024.000000pt" height="1024.000000pt" viewBox="0 0 1024.000000 1024.000000"
 preserveAspectRatio="xMidYMid meet">
<metadata>
Created by potrace 1.14, written by Peter Selinger 2001-2017
</metadata>
<g transform="translate(0.000000,1024.000000) scale(0.100000,-0.100000)"
fill="#000000" stroke="none">
<path d="M5100 10225 c-7 -8 -16 -12 -21 -9 -5 3 -9 2 -9 -3 0 -4 -10 -13 -23
-19 -12 -6 -62 -35 -112 -64 -105 -61 -129 -75 -210 -120 -65 -36 -107 -61
-115 -70 -3 -3 -23 -14 -45 -25 -22 -11 -42 -22 -45 -25 -3 -3 -14 -10 -25
-16 -60 -33 -128 -71 -294 -167 -101 -59 -188 -107 -192 -107 -5 0 -9 -4 -9
-10 0 -5 -4 -10 -9 -10 -8 0 -262 -144 -504 -286 -32 -19 -63 -34 -68 -34 -5
0 -9 -3 -9 -7 0 -5 -27 -21 -60 -37 -33 -16 -60 -33 -60 -37 0 -4 -12 -12 -27
-18 -31 -12 -106 -53 -125 -69 -7 -5 -35 -22 -63 -37 -27 -14 -63 -34 -80 -44
-16 -10 -50 -30 -75 -45 -25 -15 -53 -29 -62 -33 -10 -3 -18 -10 -18 -15 0 -5
-4 -6 -10 -3 -5 3 -10 1 -10 -4 0 -6 -4 -11 -9 -11 -5 0 -45 -21 -88 -47 -43
-25 -103 -60 -133 -76 -30 -17 -57 -33 -60 -36 -3 -4 -24 -15 -47 -26 -24 -11
-43 -23 -43 -27 0 -5 -6 -8 -14 -8 -7 0 -19 -7 -26 -15 -7 -9 -15 -13 -18 -11
-3 3 -17 -3 -31 -13 -14 -10 -46 -29 -71 -43 -25 -14 -117 -67 -205 -118 -88
-51 -173 -100 -190 -109 -16 -9 -32 -18 -35 -21 -5 -5 -17 -12 -112 -65 -20
-11 -62 -36 -95 -55 -32 -19 -67 -39 -78 -45 -97 -54 -193 -111 -207 -123 -10
-8 -18 -12 -18 -9 0 3 -36 -16 -79 -43 -43 -27 -82 -46 -85 -43 -3 4 -6 2 -6
-3 0 -5 -21 -21 -47 -34 -26 -14 -54 -31 -61 -37 -7 -7 -24 -16 -38 -19 -13
-3 -24 -10 -24 -15 0 -5 -4 -9 -10 -9 -5 0 -43 -20 -83 -45 -41 -25 -78 -45
-81 -45 -4 0 -12 -5 -19 -11 -7 -6 -36 -24 -65 -40 l-52 -29 2 -2563 3 -2562
40 -22 c22 -12 56 -31 75 -42 19 -11 47 -26 62 -33 16 -7 28 -16 28 -20 0 -4
4 -8 10 -8 5 0 39 -18 75 -40 36 -22 70 -40 75 -40 6 0 10 -5 10 -12 0 -6 3
-8 7 -5 3 4 13 1 22 -6 16 -14 180 -109 291 -170 30 -16 62 -35 70 -42 8 -7
25 -16 38 -19 12 -4 22 -12 22 -17 0 -5 5 -9 11 -9 6 0 44 -19 83 -43 39 -24
78 -46 86 -50 8 -4 31 -17 50 -28 19 -12 53 -32 75 -43 22 -12 58 -33 80 -47
22 -14 47 -29 55 -32 8 -4 31 -17 50 -28 130 -78 291 -169 300 -169 5 0 10 -4
10 -9 0 -5 8 -11 18 -14 16 -6 59 -30 137 -78 17 -11 41 -24 55 -31 14 -7 27
-15 30 -18 5 -5 54 -32 105 -58 17 -9 32 -18 35 -21 3 -4 16 -12 30 -19 14 -6
32 -16 40 -22 28 -18 145 -86 200 -117 30 -16 95 -53 144 -82 49 -28 92 -51
97 -51 4 0 9 -3 11 -7 2 -5 23 -19 48 -32 25 -14 47 -27 50 -30 3 -3 21 -14
40 -23 19 -10 53 -29 75 -43 22 -13 54 -31 70 -40 35 -18 125 -70 175 -103 19
-12 38 -22 42 -22 4 0 36 -18 70 -40 35 -22 69 -40 76 -40 6 0 12 -3 12 -7 0
-5 10 -13 23 -19 35 -17 451 -257 457 -263 3 -3 21 -14 40 -23 19 -10 42 -22
50 -28 44 -29 243 -140 251 -140 5 0 9 -4 9 -8 0 -5 16 -14 35 -22 19 -8 35
-17 35 -20 0 -3 16 -12 35 -20 19 -8 35 -17 35 -22 0 -4 4 -8 10 -8 5 0 39
-18 75 -40 36 -22 67 -40 69 -40 2 0 29 -15 60 -34 l57 -34 57 29 c63 33 94
51 102 59 3 3 14 10 25 16 86 46 111 60 115 64 3 3 25 16 50 29 25 13 52 29
60 36 8 6 30 17 48 25 17 7 32 16 32 21 0 5 4 9 8 9 8 0 87 44 352 198 163 94
174 101 210 120 19 10 97 55 174 100 76 45 140 82 141 82 2 0 40 23 85 50 45
28 84 50 87 50 3 0 39 20 80 45 40 25 78 45 83 45 6 0 10 4 10 9 0 5 11 12 25
15 14 4 25 11 25 16 0 6 5 10 11 10 5 0 107 56 225 125 119 69 218 125 220
125 3 0 20 11 38 25 18 14 35 23 38 20 3 -3 11 1 18 10 7 8 16 15 20 15 5 0
55 28 112 62 56 34 119 70 138 80 19 10 53 30 75 43 22 14 49 30 60 36 11 5
29 15 40 22 11 7 99 57 195 112 96 55 177 103 178 107 2 5 8 8 14 8 5 0 22 9
36 19 15 10 29 18 32 18 3 0 16 6 30 15 26 16 127 75 190 110 19 11 64 37 100
58 36 21 81 47 100 58 19 11 71 41 115 66 44 26 88 51 98 57 41 22 57 31 155
89 57 33 108 60 113 60 5 0 9 4 9 9 0 5 12 14 28 20 26 10 61 30 72 41 3 3 21
13 40 24 97 52 146 80 158 89 9 7 12 532 12 2563 l0 2553 -22 21 c-12 11 -28
20 -35 20 -7 0 -13 5 -13 10 0 6 -4 10 -9 10 -8 0 -48 22 -134 74 -78 46 -133
77 -149 82 -10 4 -18 10 -18 14 0 4 -11 11 -25 14 -14 4 -25 11 -25 17 0 6 -4
7 -10 4 -5 -3 -10 -2 -10 3 0 4 -16 14 -35 22 -19 8 -35 17 -35 22 0 4 -6 8
-14 8 -7 0 -19 7 -26 15 -7 9 -15 13 -18 11 -2 -3 -24 8 -48 24 -23 17 -45 30
-48 30 -3 0 -35 18 -71 40 -36 22 -67 40 -69 40 -3 0 -52 28 -156 90 -8 5
-150 87 -315 182 -165 95 -308 178 -317 183 -9 6 -41 23 -70 39 -29 15 -60 34
-69 42 -8 8 -18 14 -21 14 -4 0 -73 39 -155 87 -81 48 -166 96 -188 108 -35
19 -65 36 -140 82 -11 7 -42 24 -70 39 -27 15 -53 31 -56 36 -3 5 -9 9 -13 8
-4 0 -49 24 -101 55 -52 30 -98 55 -102 55 -4 0 -21 11 -37 25 -16 14 -34 25
-40 25 -6 0 -27 11 -46 24 -19 13 -66 40 -105 61 -38 21 -77 44 -86 51 -8 8
-19 14 -22 14 -4 0 -37 18 -73 40 -36 22 -68 40 -70 40 -3 0 -21 11 -42 23
-20 13 -57 35 -82 49 -173 98 -216 123 -220 128 -3 3 -24 14 -47 25 -24 11
-43 23 -43 28 0 4 -4 7 -10 7 -5 0 -44 20 -86 45 -41 25 -80 45 -85 45 -5 0
-9 4 -9 9 0 5 -8 12 -17 15 -10 4 -36 17 -58 29 -35 20 -59 34 -160 94 -11 7
-27 15 -35 19 -8 4 -62 35 -120 69 -58 34 -125 73 -150 87 -44 25 -69 39 -160
92 -53 30 -54 30 -70 11z"/>
</g>
</svg>
